<svg id="visual" viewBox="0 0 960 540" width="960" height="540" version="1.1" xmlns="http://www.w3.org/2000/svg">
  <defs id="defs7" />
  <path d="M0 82L120 55L240 55L360 28L480 77L600 66L720 39L840 28L960 71L960 0L840 0L720 0L600 0L480 0L360 0L240 0L120 0L0 0Z" fill="#64e9f5" id="layer1" />
  <path d="M0 104L120 104L240 120L360 77L480 114L600 120L720 104L840 87L960 136L960 69L840 26L720 37L600 64L480 75L360 26L240 53L120 53L0 80Z" fill="#3fdcfa" id="layer2" />
  <path d="M0 152L120 190L240 228L360 158L480 217L600 179L720 195L840 147L960 212L960 134L840 85L720 102L600 118L480 112L360 75L240 118L120 102L0 102Z" fill="#15cdfd" id="layer3" />
  <path d="M0 293L120 352L240 374L360 249L480 341L600 336L720 266L840 320L960 379L960 210L840 145L720 193L600 177L480 215L360 156L240 226L120 188L0 150Z" fill="#00beff" id="layer4" />
  <path d="M0 347L120 390L240 395L360 298L480 395L600 384L720 320L840 379L960 438L960 377L840 318L720 264L600 334L480 339L360 247L240 372L120 350L0 291Z" fill="#34acff" id="layer5" />
  <path d="M0 395L120 465L240 428L360 384L480 460L600 449L720 406L840 444L960 482L960 436L840 377L720 318L600 382L480 393L360 296L240 393L120 388L0 345Z" fill="#8491ff" id="layer6" />
  <path d="M0 541L120 541L240 541L360 541L480 541L600 541L720 541L840 541L960 541L960 480L840 442L720 404L600 447L480 458L360 382L240 426L120 463L0 393Z" fill="#c868f5" id="layer7" />
</svg>