<?xml version="1.0" encoding="UTF-8" standalone="no"?>
<svg
   id="visual"
   viewBox="0 0 540 1100"
   width="540"
   height="1100"
   version="1.1"
   xmlns="http://www.w3.org/2000/svg">
  <defs
     id="defs7" />
  <path
     d="m 0,234.80738 h 54 l 54,-97.51563 54,-12.83101 54,24.37891 54,98.79873 54,-24.37891 h 54 l 54,-50.04091 54,37.20991 54,37.20991 V 0 H 486 432 378 324 270 216 162 108 54 0 Z"
     fill="#64e9f5"
     id="layer1"
     style="stroke-width:1.13274" />
  <path
     d="m 0,349.57734 54,-13.12255 54,-125.97641 54,-49.86566 54,87.92103 54,51.17792 54,-13.12254 54,62.98821 54,-101.04359 54,87.92104 54,-24.93283 v -90.54555 l -54,-38.05537 -54,-38.05538 -54,51.17792 H 324 L 270,220.97641 216,119.93283 162,95 108,108.12254 54,207.85387 H 0 Z"
     fill="#3fdcfa"
     id="layer2"
     style="stroke-width:1.14554" />
  <path
     d="m 1.1877909,650.64769 54.0000001,-128.45068 53.999999,-104.2147 54,127.23888 54,-69.07254 h 54 l 54,35.14217 h 54 l 54,-35.14217 54,139.35687 54,-93.30851 V 287.10803 l -54,23.02418 -54,-81.19053 -54,93.30852 -54,-58.16635 -54,12.11799 -54,-47.26016 -54,-81.19052 -54,46.04836 L 55.187791,310.13221 1.1877909,322.2502 Z"
     fill="#15cdfd"
     id="layer3"
     style="stroke-width:1.10082" />
  <path
     d="m 0,905.41088 54,-96.47481 54,-41.75775 54,-54.71706 54,179.99032 54,-138.23257 54,12.95931 54,69.11628 54,-82.07559 54,192.94963 54,-83.51551 V 487.83334 l -54,110.87404 -54,-165.5911 -54,41.75776 H 324 L 270,433.11628 H 216 L 162,515.19187 108,364 54,487.83334 0,640.46513 Z"
     fill="#00beff"
     id="layer4"
     style="stroke-width:1.19997" />
  <path
     d="M 4.5668513,933.61342 55.41306,785.25893 h 54.00002 l 52.034,-92.48072 58.34158,204.22826 50.43663,-167.62131 h 54 l 55.59737,75.14058 52.81221,-55.87376 58.7102,221.56839 50.84621,-148.35449 -2.04791,-96.33408 -51.62442,111.74753 -59.48841,-258.17534 -51.66538,109.82086 -55.966,-92.48074 -54.36862,-17.34012 -50.06801,184.96144 -59.11978,-240.83522 -52.44359,73.2139 L 52.586937,652.3179 1.331145,781.40557 Z"
     fill="#34acff"
     id="layer5"
     style="stroke-width:1.38805" />
  <path
     d="m 0,1009.3818 54,-126.76494 54,79.02231 54,-46.09634 54,79.0223 54,-111.94827 54,64.20563 54,47.74264 54,-47.74264 54,79.02231 54,-95.4853 V 800.30197 L 486,927.06691 432,737.74264 378,785.48528 324,721.27966 H 270 L 216,864.50759 162,690 108,769.02231 H 54 L 0,895.78725 Z"
     fill="#8491ff"
     id="layer6"
     style="stroke-width:1.28308" />
  <path
     d="m 0,1110.6616 h 54 54 54 54 54 54 54 54 54 54 V 881.16139 L 486,985.97254 432,899.23228 378,951.63785 324,899.23228 270,828.75582 216,951.63785 162,864.89759 108,915.49608 54,828.75582 0,967.90165 Z"
     fill="#c868f5"
     id="layer7"
     style="stroke-width:1.34428" />
</svg>
