<svg
   id="visual"
   viewBox="0 0 960 540"
   width="960"
   height="540"
   version="1.1"
   xmlns="http://www.w3.org/2000/svg">
  <defs id="defs7" />
  <path
     d="M 0,82 120,55 H 240 L 360,28 480,77 600,66 720,39 840,28 960,71 V 0 H 840 720 600 480 360 240 120 0 Z"
     fill="#64e9f5"
     id="layer1"
     style="fill:#c45ef4;fill-opacity:1" />
  <path
     d="m 0,104 h 120 l 120,16 120,-43 120,37 120,6 120,-16 120,-17 120,49 V 69 L 840,26 720,37 600,64 480,75 360,26 240,53 H 120 L 0,80 Z"
     fill="#3fdcfa"
     id="layer2"
     style="fill:#8b18c4;fill-opacity:1" />
  <path
     d="m 0,152 120,38 120,38 120,-70 120,59 120,-38 120,16 120,-48 120,65 V 134 L 840,85 720,102 600,118 480,112 360,75 240,118 120,102 H 0 Z"
     fill="#15cdfd"
     id="layer3"
     style="fill:#8700c5;fill-opacity:1" />
  <path
     d="m 0,293 120,59 120,22 120,-125 120,92 120,-5 120,-70 120,54 120,59 V 345.7956 210 L 840,145 720,193 600,177 480,215 360,156 240,226 120,188 0,150 Z"
     fill="#00beff"
     id="layer4"
     style="fill:#9300d6;fill-opacity:1" />
  <path
     d="M0 347L120 390L240 395L360 298L480 395L600 384L720 320L840 379L960 438L960 377L840 318L720 264L600 334L480 339L360 247L240 372L120 350L0 291Z"
     fill="#34acff"
     id="layer5"
     style="fill:#8700c5;fill-opacity:1" />
  <path
     d="m 0,395 120,70 120,-37 120,-44 120,76 120,-11 120,-43 120,38 120,38 V 436 L 840,377 720,318 600,382 480,393 360,296 240,393 120,388 0,345 Z"
     fill="#8491ff"
     id="layer6"
     style="fill:#8700c5;fill-opacity:1" />
  <path
     d="M 0,541 H 120 240 360 480 600 720 840 960 V 480 L 840,442 720,404 600,447 480,458 360,382 240,426 120,463 0,393 Z"
     fill="#c868f5"
     id="layer7" />
</svg>

